# 3ds Max Wavefront OBJ Exporter v0.97b - (c)2007 guruware
# File Created: 03.05.2015 14:35:13

mtllib gr_corner.mtl

#
# object Tube001
#

v  -1.5451 0.0000 4.7553
v  -1.5451 0.1000 4.7553
v  -2.9389 0.1000 4.0451
v  -2.9389 0.0000 4.0451
v  -1.5528 0.2000 4.7511
v  -2.9389 0.2000 4.0451
v  -1.5528 0.3000 4.7511
v  -2.9389 0.3000 4.0451
v  -1.5451 0.4000 4.7553
v  -2.9389 0.4000 4.0451
v  -1.5451 0.5000 4.7553
v  -2.9389 0.5000 4.0451
v  -1.3906 0.5000 4.2798
v  -2.6450 0.5000 3.6406
v  -1.3906 0.4000 4.2798
v  -2.6450 0.4000 3.6406
v  -1.3906 0.3000 4.2798
v  -2.6450 0.3000 3.6406
v  -1.3906 0.2000 4.2798
v  -2.6450 0.2000 3.6406
v  -1.3761 0.1000 4.3002
v  -2.6450 0.1000 3.6406
v  -1.3761 0.0000 4.3002
v  -2.6450 0.0000 3.6406
v  -4.0451 0.1000 2.9389
v  -4.0451 0.0000 2.9389
v  -4.0451 0.2000 2.9389
v  -4.0451 0.3000 2.9389
v  -4.0451 0.4000 2.9389
v  -4.0451 0.5000 2.9389
v  -3.6406 0.5000 2.6450
v  -3.6406 0.4000 2.6450
v  -3.6406 0.3000 2.6450
v  -3.6406 0.2000 2.6450
v  -3.6406 0.1000 2.6450
v  -3.6406 0.0000 2.6450
v  -4.7553 0.1000 1.5451
v  -4.7553 0.0000 1.5451
v  -4.7553 0.2000 1.5451
v  -4.7553 0.3000 1.5451
v  -4.7553 0.4000 1.5451
v  -4.7553 0.5000 1.5451
v  -4.2798 0.5000 1.3906
v  -4.2798 0.4000 1.3906
v  -4.2798 0.3000 1.3906
v  -4.2798 0.2000 1.3906
v  -4.2798 0.1000 1.3906
v  -4.2798 0.0000 1.3906
# 48 vertices

vn -0.4540 0.0000 0.8910
vn -0.4539 0.0011 0.8910
vn -0.5878 0.0000 0.8090
vn -0.4539 0.0012 0.8911
vn -0.4539 -0.0012 0.8910
vn -0.5877 0.0000 0.8091
vn -0.4540 -0.0011 0.8910
vn -0.5878 -0.0000 0.8090
vn 0.0000 1.0000 -0.0000
vn 0.4540 0.0000 -0.8910
vn 0.5878 0.0000 -0.8090
vn 0.4569 -0.0585 -0.8876
vn 0.4606 -0.0529 -0.8860
vn 0.5895 -0.0013 -0.8078
vn 0.4612 0.0000 -0.8873
vn 0.5911 0.0000 -0.8066
vn 0.0000 -1.0000 -0.0000
vn -0.8090 0.0000 0.5878
vn 0.8090 0.0000 -0.5878
vn -0.8910 0.0000 0.4540
vn 0.8910 0.0000 -0.4540
vn 0.9444 0.0204 0.3283
vn -0.3090 0.0000 -0.9511
# 23 vertex normals

vt 0.0000 0.5500 0.0000
vt 0.0833 0.5500 0.0000
vt 0.0833 0.6000 0.0000
vt 0.0000 0.6000 0.0000
vt 0.1667 0.5500 0.0000
vt 0.1667 0.6000 0.0000
vt 0.2500 0.5500 0.0000
vt 0.2500 0.6000 0.0000
vt 0.3333 0.5500 0.0000
vt 0.3333 0.6000 0.0000
vt 0.4167 0.5500 0.0000
vt 0.4167 0.6000 0.0000
vt 0.5000 0.5500 0.0000
vt 0.5000 0.6000 0.0000
vt 0.5833 0.5500 0.0000
vt 0.5833 0.6000 0.0000
vt 0.6667 0.5500 0.0000
vt 0.6667 0.6000 0.0000
vt 0.7500 0.5500 0.0000
vt 0.7500 0.6000 0.0000
vt 0.8333 0.5500 0.0000
vt 0.8333 0.6000 0.0000
vt 0.9167 0.5500 0.0000
vt 0.9167 0.6000 0.0000
vt 1.0000 0.5500 0.0000
vt 1.0000 0.6000 0.0000
vt 0.0833 0.6500 0.0000
vt 0.0000 0.6500 0.0000
vt 0.1667 0.6500 0.0000
vt 0.2500 0.6500 0.0000
vt 0.3333 0.6500 0.0000
vt 0.4167 0.6500 0.0000
vt 0.5000 0.6500 0.0000
vt 0.5833 0.6500 0.0000
vt 0.6667 0.6500 0.0000
vt 0.7500 0.6500 0.0000
vt 0.8333 0.6500 0.0000
vt 0.9167 0.6500 0.0000
vt 1.0000 0.6500 0.0000
vt 0.0833 0.7000 0.0000
vt 0.0000 0.7000 0.0000
vt 0.1667 0.7000 0.0000
vt 0.2500 0.7000 0.0000
vt 0.3333 0.7000 0.0000
vt 0.4167 0.7000 0.0000
vt 0.5000 0.7000 0.0000
vt 0.5833 0.7000 0.0000
vt 0.6667 0.7000 0.0000
vt 0.7500 0.7000 0.0000
vt 0.8333 0.7000 0.0000
vt 0.9167 0.7000 0.0000
vt 1.0000 0.7000 0.0000
# 52 texture coords

g Tube001
usemtl wire_255255255
s 2
f 1/1/1 2/2/2 3/3/3 4/4/3 
f 2/2/2 5/5/4 6/6/3 3/3/3 
f 5/5/4 7/7/5 8/8/6 6/6/3 
f 7/7/5 9/9/7 10/10/8 8/8/6 
f 9/9/7 11/11/1 12/12/3 10/10/8 
s 4
f 11/11/9 13/13/9 14/14/9 12/12/9 
s 2
f 13/13/10 15/15/10 16/16/11 14/14/11 
f 15/15/10 17/17/10 18/18/11 16/16/11 
f 17/17/10 19/19/12 20/20/11 18/18/11 
f 19/19/12 21/21/13 22/22/14 20/20/11 
f 21/21/13 23/23/15 24/24/16 22/22/14 
s 4
f 23/23/17 1/25/17 4/26/17 24/24/17 
s 2
f 4/4/3 3/3/3 25/27/18 26/28/18 
f 3/3/3 6/6/3 27/29/18 25/27/18 
f 6/6/3 8/8/6 28/30/18 27/29/18 
f 8/8/6 10/10/8 29/31/18 28/30/18 
f 10/10/8 12/12/3 30/32/18 29/31/18 
s 4
f 12/12/9 14/14/9 31/33/9 30/32/9 
s 2
f 14/14/11 16/16/11 32/34/19 31/33/19 
f 16/16/11 18/18/11 33/35/19 32/34/19 
f 18/18/11 20/20/11 34/36/19 33/35/19 
f 20/20/11 22/22/14 35/37/19 34/36/19 
f 22/22/14 24/24/16 36/38/19 35/37/19 
s 4
f 24/24/17 4/26/17 26/39/17 36/38/17 
s 2
f 26/28/18 25/27/18 37/40/20 38/41/20 
f 25/27/18 27/29/18 39/42/20 37/40/20 
f 27/29/18 28/30/18 40/43/20 39/42/20 
f 28/30/18 29/31/18 41/44/20 40/43/20 
f 29/31/18 30/32/18 42/45/20 41/44/20 
s 4
f 30/32/9 31/33/9 43/46/9 42/45/9 
s 2
f 31/33/19 32/34/19 44/47/21 43/46/21 
f 32/34/19 33/35/19 45/48/21 44/47/21 
f 33/35/19 34/36/19 46/49/21 45/48/21 
f 34/36/19 35/37/19 47/50/21 46/49/21 
f 35/37/19 36/38/19 48/51/21 47/50/21 
s 4
f 36/38/17 26/39/17 38/52/17 48/51/17 
s off
f 11/11/22 1/1/22 23/23/22 13/13/22 
f 43/46/23 48/51/23 38/41/23 42/45/23 
# 38 polygons

