# 3ds Max Wavefront OBJ Exporter v0.97b - (c)2007 guruware
# File Created: 03.05.2015 14:57:13

mtllib gr_edge.mtl

#
# object Tube003
#

v  -0.0000 0.0000 -5.0000
v  -0.0000 0.1000 -5.0000
v  1.5451 0.1000 -4.7553
v  1.5451 0.0000 -4.7553
v  -0.0000 0.2000 -5.0000
v  1.5451 0.2000 -4.7553
v  -0.0000 0.3000 -5.0000
v  1.5451 0.3000 -4.7553
v  -0.0000 0.4000 -5.0000
v  1.5451 0.4000 -4.7553
v  -0.0000 0.5000 -5.0000
v  1.5451 0.5000 -4.7553
v  -0.0000 0.5000 -4.5000
v  1.3906 0.5000 -4.2798
v  -0.0000 0.4000 -4.5000
v  1.3906 0.4000 -4.2798
v  -0.0000 0.3000 -4.5000
v  1.3906 0.3000 -4.2798
v  -0.0000 0.2000 -4.5000
v  1.3906 0.2000 -4.2798
v  -0.0000 0.1000 -4.5000
v  1.3906 0.1000 -4.2798
v  -0.0000 0.0000 -4.5000
v  1.3906 0.0000 -4.2798
v  -1.5451 0.0000 -4.7553
v  -1.5451 0.1000 -4.7553
v  -1.5451 0.2000 -4.7553
v  -1.5451 0.3000 -4.7553
v  -1.5451 0.4000 -4.7553
v  -1.5451 0.5000 -4.7553
v  -1.3906 0.5000 -4.2798
v  -1.3906 0.4000 -4.2798
v  -1.3906 0.3000 -4.2798
v  -1.3906 0.2000 -4.2798
v  -1.3906 0.1000 -4.2798
v  -1.3906 0.0000 -4.2798
# 36 vertices

vn 0.0000 0.0000 -1.0000
vn 0.1564 0.0000 -0.9877
vn 0.0000 1.0000 -0.0000
vn -0.0000 0.0000 1.0000
vn -0.1564 0.0000 0.9877
vn 0.0000 -1.0000 -0.0000
vn -0.1564 0.0000 -0.9877
vn 0.1564 0.0000 0.9877
vn -0.9511 0.0000 0.3090
vn 0.9511 0.0000 0.3090
# 10 vertex normals

vt 0.0000 0.0000 0.0000
vt 0.0833 0.0000 0.0000
vt 0.0833 0.0500 0.0000
vt 0.0000 0.0500 0.0000
vt 0.1667 0.0000 0.0000
vt 0.1667 0.0500 0.0000
vt 0.2500 0.0000 0.0000
vt 0.2500 0.0500 0.0000
vt 0.3333 0.0000 0.0000
vt 0.3333 0.0500 0.0000
vt 0.4167 0.0000 0.0000
vt 0.4167 0.0500 0.0000
vt 0.5000 0.0000 0.0000
vt 0.5000 0.0500 0.0000
vt 0.5833 0.0000 0.0000
vt 0.5833 0.0500 0.0000
vt 0.6667 0.0000 0.0000
vt 0.6667 0.0500 0.0000
vt 0.7500 0.0000 0.0000
vt 0.7500 0.0500 0.0000
vt 0.8333 0.0000 0.0000
vt 0.8333 0.0500 0.0000
vt 0.9167 0.0000 0.0000
vt 0.9167 0.0500 0.0000
vt 1.0000 0.0000 0.0000
vt 1.0000 0.0500 0.0000
vt 0.0000 0.9500 0.0000
vt 0.0833 0.9500 0.0000
vt 0.0833 1.0000 0.0000
vt 0.0000 1.0000 0.0000
vt 0.1667 0.9500 0.0000
vt 0.1667 1.0000 0.0000
vt 0.2500 0.9500 0.0000
vt 0.2500 1.0000 0.0000
vt 0.3333 0.9500 0.0000
vt 0.3333 1.0000 0.0000
vt 0.4167 0.9500 0.0000
vt 0.4167 1.0000 0.0000
vt 0.5000 0.9500 0.0000
vt 0.5000 1.0000 0.0000
vt 0.5833 0.9500 0.0000
vt 0.5833 1.0000 0.0000
vt 0.6667 0.9500 0.0000
vt 0.6667 1.0000 0.0000
vt 0.7500 0.9500 0.0000
vt 0.7500 1.0000 0.0000
vt 0.8333 0.9500 0.0000
vt 0.8333 1.0000 0.0000
vt 0.9167 0.9500 0.0000
vt 0.9167 1.0000 0.0000
vt 1.0000 0.9500 0.0000
vt 1.0000 1.0000 0.0000
# 52 texture coords

g Tube003
usemtl wire_255255255
s 2
f 1/1/1 2/2/1 3/3/2 4/4/2 
f 2/2/1 5/5/1 6/6/2 3/3/2 
f 5/5/1 7/7/1 8/8/2 6/6/2 
f 7/7/1 9/9/1 10/10/2 8/8/2 
f 9/9/1 11/11/1 12/12/2 10/10/2 
s 4
f 11/11/3 13/13/3 14/14/3 12/12/3 
s 2
f 13/13/4 15/15/4 16/16/5 14/14/5 
f 15/15/4 17/17/4 18/18/5 16/16/5 
f 17/17/4 19/19/4 20/20/5 18/18/5 
f 19/19/4 21/21/4 22/22/5 20/20/5 
f 21/21/4 23/23/4 24/24/5 22/22/5 
s 4
f 23/23/6 1/25/6 4/26/6 24/24/6 
s 2
f 25/27/7 26/28/7 2/29/1 1/30/1 
f 26/28/7 27/31/7 5/32/1 2/29/1 
f 27/31/7 28/33/7 7/34/1 5/32/1 
f 28/33/7 29/35/7 9/36/1 7/34/1 
f 29/35/7 30/37/7 11/38/1 9/36/1 
s 4
f 30/37/3 31/39/3 13/40/3 11/38/3 
s 2
f 31/39/8 32/41/8 15/42/4 13/40/4 
f 32/41/8 33/43/8 17/44/4 15/42/4 
f 33/43/8 34/45/8 19/46/4 17/44/4 
f 34/45/8 35/47/8 21/48/4 19/46/4 
f 35/47/8 36/49/8 23/50/4 21/48/4 
s 4
f 36/49/6 25/51/6 1/52/6 23/50/6 
s off
f 30/37/9 25/27/9 36/49/9 31/39/9 
f 14/14/10 24/24/10 4/4/10 12/12/10 
# 26 polygons

